<?xml version="1.0" encoding="iso-8859-1"?>
<!-- Generator: Adobe Illustrator 19.0.0, SVG Export Plug-In . SVG Version: 6.00 Build 0)  -->
<svg version="1.1" id="Capa_1" xmlns="http://www.w3.org/2000/svg" xmlns:xlink="http://www.w3.org/1999/xlink" x="0px" y="0px"
	 viewBox="0 0 447.999 447.999" style="enable-background:new 0 0 447.999 447.999;" xml:space="preserve">
<path style="fill:#125D9D;" d="M312,320c0,17.673-14.327,32-32,32H56c-17.673,0-32-14.327-32-32V32C24,14.327,38.327,0,56,0h224
	c17.673,0,32,14.327,32,32V320z"/>
<path style="fill:#E7BE29;" d="M168,48c-53.019,0-96,42.981-96,96s42.981,96,96,96s96-42.981,96-96S221.019,48,168,48z M239.046,108
	h-34.598c-3.309-16.58-8.477-29.981-13.754-40.32C211.835,73.988,229.191,88.648,239.046,108z M192,144
	c0,7.142-0.535,13.703-1.27,20h-45.457c-0.738-6.297-1.274-12.859-1.274-20c0-7.145,0.527-13.705,1.258-20h45.488
	C191.472,130.294,192,136.855,192,144z M147.925,108c4.442-20.049,11.77-34.614,17.746-43.766C166.46,64.211,167.203,64,168,64
	c0.805,0,1.55,0.215,2.351,0.238c6.004,9.211,13.305,23.782,17.726,43.762L147.925,108L147.925,108z M145.304,67.679
	c-5.258,10.317-10.43,23.733-13.742,40.32h-34.61C106.808,88.648,124.164,73.992,145.304,67.679z M90.839,124h38.293
	c-0.668,6.336-1.133,12.926-1.133,20c0,7.078,0.477,13.66,1.156,20H90.838c-1.672-6.43-2.84-13.054-2.84-20
	S89.168,130.43,90.839,124z M96.952,180h34.649c3.344,16.617,8.519,30.133,13.68,40.313C124.152,214,106.804,199.343,96.952,180z
	 M165.671,223.766c-5.734-8.82-13.203-23.424-17.726-43.766h40.11c-4.516,20.328-11.977,34.926-17.73,43.766
	C169.535,223.789,168.796,224,168,224S166.464,223.789,165.671,223.766z M190.726,220.312c5.168-10.19,10.34-23.695,13.676-40.313
	h34.645C229.195,199.342,211.851,213.996,190.726,220.312z M245.16,164h-38.313c0.676-6.34,1.152-12.922,1.152-20
	c0-7.074-0.461-13.664-1.129-20h38.289c1.672,6.43,2.84,13.054,2.84,20S246.832,157.57,245.16,164z"/>
<g style="enable-background:new    ;">
	<path style="fill:#FFFFFF;" d="M82.493,303.999v-22.906h8.641c1.521,0,2.682,0.073,3.484,0.219c1.125,0.188,2.067,0.545,2.828,1.07
		c0.76,0.526,1.372,1.264,1.836,2.211c0.463,0.948,0.695,1.99,0.695,3.125c0,1.948-0.62,3.597-1.859,4.945
		c-1.24,1.35-3.479,2.023-6.719,2.023h-5.875v9.313H82.493z M85.525,291.984h5.922c1.958,0,3.349-0.364,4.172-1.094
		c0.823-0.729,1.234-1.755,1.234-3.078c0-0.958-0.242-1.778-0.727-2.461c-0.484-0.682-1.123-1.133-1.914-1.352
		c-0.511-0.135-1.453-0.203-2.828-0.203h-5.859V291.984z"/>
	<path style="fill:#FFFFFF;" d="M98.947,303.999l8.797-22.906h3.266l9.375,22.906h-3.453l-2.672-6.938h-9.578l-2.516,6.938H98.947z
		 M105.556,294.593h7.766l-2.391-6.344c-0.729-1.927-1.271-3.51-1.625-4.75c-0.292,1.469-0.703,2.928-1.234,4.375L105.556,294.593z"
		/>
	<path style="fill:#FFFFFF;" d="M121.775,296.64l2.859-0.25c0.135,1.146,0.45,2.086,0.945,2.82c0.495,0.734,1.263,1.328,2.305,1.781
		c1.042,0.453,2.213,0.68,3.516,0.68c1.156,0,2.177-0.172,3.063-0.516c0.885-0.344,1.544-0.814,1.977-1.414
		c0.432-0.599,0.648-1.252,0.648-1.961c0-0.719-0.208-1.346-0.625-1.883c-0.417-0.536-1.104-0.986-2.063-1.352
		c-0.615-0.239-1.974-0.611-4.078-1.117c-2.104-0.505-3.578-0.981-4.422-1.43c-1.094-0.572-1.909-1.283-2.445-2.133
		c-0.537-0.849-0.805-1.799-0.805-2.852c0-1.156,0.328-2.236,0.984-3.242c0.656-1.005,1.614-1.768,2.875-2.289
		c1.26-0.521,2.661-0.781,4.203-0.781c1.698,0,3.195,0.273,4.492,0.82s2.294,1.352,2.992,2.414c0.698,1.063,1.073,2.266,1.125,3.609
		l-2.906,0.219c-0.156-1.447-0.685-2.541-1.586-3.281c-0.901-0.739-2.232-1.109-3.992-1.109c-1.833,0-3.169,0.336-4.008,1.008
		c-0.839,0.672-1.258,1.482-1.258,2.43c0,0.823,0.297,1.5,0.891,2.031c0.583,0.531,2.106,1.076,4.57,1.633
		c2.463,0.558,4.153,1.045,5.07,1.461c1.333,0.615,2.317,1.394,2.953,2.336c0.635,0.943,0.953,2.029,0.953,3.258
		c0,1.219-0.349,2.367-1.047,3.445c-0.698,1.078-1.701,1.917-3.008,2.516c-1.308,0.599-2.779,0.898-4.414,0.898
		c-2.073,0-3.81-0.303-5.211-0.906c-1.401-0.604-2.5-1.513-3.297-2.727C122.236,299.544,121.816,298.171,121.775,296.64z"/>
	<path style="fill:#FFFFFF;" d="M143.118,296.64l2.859-0.25c0.135,1.146,0.45,2.086,0.945,2.82c0.495,0.734,1.263,1.328,2.305,1.781
		c1.042,0.453,2.213,0.68,3.516,0.68c1.156,0,2.177-0.172,3.063-0.516c0.885-0.344,1.544-0.814,1.977-1.414
		c0.432-0.599,0.648-1.252,0.648-1.961c0-0.719-0.208-1.346-0.625-1.883c-0.417-0.536-1.104-0.986-2.063-1.352
		c-0.615-0.239-1.974-0.611-4.078-1.117c-2.104-0.505-3.578-0.981-4.422-1.43c-1.094-0.572-1.909-1.283-2.445-2.133
		c-0.537-0.849-0.805-1.799-0.805-2.852c0-1.156,0.328-2.236,0.984-3.242c0.656-1.005,1.614-1.768,2.875-2.289
		c1.26-0.521,2.661-0.781,4.203-0.781c1.698,0,3.195,0.273,4.492,0.82s2.294,1.352,2.992,2.414c0.698,1.063,1.073,2.266,1.125,3.609
		l-2.906,0.219c-0.156-1.447-0.685-2.541-1.586-3.281c-0.901-0.739-2.232-1.109-3.992-1.109c-1.833,0-3.169,0.336-4.008,1.008
		c-0.839,0.672-1.258,1.482-1.258,2.43c0,0.823,0.297,1.5,0.891,2.031c0.583,0.531,2.106,1.076,4.57,1.633
		c2.463,0.558,4.153,1.045,5.07,1.461c1.333,0.615,2.317,1.394,2.953,2.336c0.635,0.943,0.953,2.029,0.953,3.258
		c0,1.219-0.349,2.367-1.047,3.445c-0.698,1.078-1.701,1.917-3.008,2.516c-1.308,0.599-2.779,0.898-4.414,0.898
		c-2.073,0-3.81-0.303-5.211-0.906c-1.401-0.604-2.5-1.513-3.297-2.727C143.579,299.544,143.16,298.171,143.118,296.64z"/>
	<path style="fill:#FFFFFF;" d="M165.493,303.999v-22.906h8.641c1.521,0,2.682,0.073,3.484,0.219
		c1.125,0.188,2.067,0.545,2.828,1.07c0.76,0.526,1.372,1.264,1.836,2.211c0.463,0.948,0.695,1.99,0.695,3.125
		c0,1.948-0.62,3.597-1.859,4.945c-1.24,1.35-3.479,2.023-6.719,2.023h-5.875v9.313H165.493z M168.525,291.984h5.922
		c1.958,0,3.349-0.364,4.172-1.094c0.823-0.729,1.234-1.755,1.234-3.078c0-0.958-0.242-1.778-0.727-2.461
		c-0.484-0.682-1.123-1.133-1.914-1.352c-0.511-0.135-1.453-0.203-2.828-0.203h-5.859V291.984z"/>
	<path style="fill:#FFFFFF;" d="M185.915,292.843c0-3.802,1.021-6.778,3.063-8.93c2.042-2.15,4.677-3.227,7.906-3.227
		c2.114,0,4.021,0.506,5.719,1.516c1.698,1.011,2.992,2.42,3.883,4.227c0.891,1.808,1.336,3.857,1.336,6.148
		c0,2.323-0.469,4.401-1.406,6.234c-0.938,1.834-2.266,3.222-3.984,4.164c-1.719,0.943-3.573,1.414-5.563,1.414
		c-2.156,0-4.083-0.521-5.781-1.563c-1.698-1.041-2.984-2.463-3.859-4.266C186.353,296.76,185.915,294.854,185.915,292.843z
		 M189.04,292.89c0,2.761,0.742,4.936,2.227,6.523c1.484,1.589,3.346,2.383,5.586,2.383c2.281,0,4.159-0.802,5.633-2.406
		c1.474-1.604,2.211-3.88,2.211-6.828c0-1.864-0.315-3.492-0.945-4.883c-0.63-1.391-1.552-2.469-2.766-3.234
		c-1.214-0.766-2.576-1.148-4.086-1.148c-2.146,0-3.992,0.737-5.539,2.211C189.814,286.982,189.04,289.443,189.04,292.89z"/>
	<path style="fill:#FFFFFF;" d="M211.775,303.999v-22.906h10.156c2.041,0,3.594,0.206,4.656,0.617
		c1.063,0.412,1.911,1.139,2.547,2.18c0.635,1.042,0.953,2.193,0.953,3.453c0,1.625-0.526,2.995-1.578,4.109
		c-1.053,1.115-2.678,1.823-4.875,2.125c0.802,0.386,1.411,0.766,1.828,1.141c0.885,0.813,1.724,1.828,2.516,3.047l3.984,6.234
		h-3.813l-3.031-4.766c-0.886-1.375-1.615-2.427-2.188-3.156c-0.573-0.729-1.086-1.239-1.539-1.531
		c-0.453-0.291-0.914-0.494-1.383-0.609c-0.344-0.072-0.906-0.109-1.688-0.109h-3.516v10.172H211.775z M214.806,291.202h6.516
		c1.385,0,2.469-0.143,3.25-0.43c0.781-0.286,1.375-0.744,1.781-1.375c0.406-0.63,0.609-1.314,0.609-2.055
		c0-1.083-0.394-1.974-1.18-2.672c-0.787-0.697-2.029-1.047-3.727-1.047h-7.25V291.202z"/>
	<path style="fill:#FFFFFF;" d="M240.087,303.999v-20.203h-7.547v-2.703h18.156v2.703h-7.578v20.203H240.087z"/>
</g>
<path style="fill:#F5DDCF;" d="M414.62,185.367L360,130.746v-16.478c0-15.616-10.17-30.305-25.442-33.566
	c-8.383-1.79-16.118-0.012-22.558,3.736V272c-2.681,2.681-6.712,3.482-10.214,2.032c-3.502-1.45-5.786-4.868-5.786-8.659v-55.668
	c0-15.94-10.896-30.71-26.63-33.267C249.319,173.18,232,188.564,232,208v144c0,17.672,7.164,33.672,18.746,45.254l14.058,14.059
	c9.73,9.73,15.195,22.926,15.195,36.686h128v-40.364c0-15.698,1.926-31.338,5.733-46.567l4.534-18.139
	c3.807-15.23,5.733-30.869,5.733-46.567V208C424,199.16,420.413,191.158,414.62,185.367z"/>
<path style="fill:#F1CEBC;" d="M312,84.438V272c10.245-10.245,16-24.139,16-38.627V80C322.14,80,316.722,81.689,312,84.438z"/>
<path style="fill:#F8ECE4;" d="M248.507,200v16c0,8.836,7.164,16,16,16c8.836,0,16-7.164,16-16v-16H248.507z"/>
<g>
</g>
<g>
</g>
<g>
</g>
<g>
</g>
<g>
</g>
<g>
</g>
<g>
</g>
<g>
</g>
<g>
</g>
<g>
</g>
<g>
</g>
<g>
</g>
<g>
</g>
<g>
</g>
<g>
</g>
</svg>
